<svg xmlns="http://www.w3.org/2000/svg" width="227px" height="219px" viewBox="0 0 227 219">
  <ellipse fill="#FFFFFF" cx="113.5" cy="109.5" rx="103.5" ry="47.5"></ellipse>
  <path d="M170.15,21.549 C165.738,11.728 159.292,4.805 150.922,1.885 C128.626,-5.891 99.34,17.023 77.74,55.856 C82.0372162,54.8372788 86.3611209,53.9346174 90.707,53.149 C118.681,34.455 147.209,23.493 170.15,21.549 Z M56.692,197.228 C61.103,207.048 67.552,213.97 75.921,216.891 C98.216,224.668 127.501,201.751 149.101,162.923 C144.803044,163.940531 140.478478,164.842191 136.132,165.627 C108.158,184.322 79.632,195.282 56.692,197.228 Z" fill="#5BBCD4" fill-rule="nonzero"></path>
  <path d="M106.562,50.793 C147.974,45.946 185.727,51.535 209.605,64.049 C210.529,54.795 208.769,46.661 203.96,40.353 C188.276,19.785 145.288,25.319 101.806,51.398 C103.389476,51.1819883 104.974874,50.9803134 106.562,50.793 Z M120.279,167.981 C78.868,172.831 41.115,167.242 17.237,154.728 C16.314,163.984 18.072,172.117 22.882,178.422 C38.566,198.992 81.553,193.456 125.033,167.376 C123.457,167.594 121.875,167.798 120.279,167.981 Z" fill="#2589A1" fill-rule="nonzero"></path>
  <path d="M83.993,113.832 C78.188,115.841 75.231,123.542 80.087,127.393 C84.942,131.247 93.09,129.458 96.884,125.664 C100.679,121.87 102.967,112.552 102.967,112.552 C102.967,112.552 89.798,111.822 83.993,113.832 Z M131.151,91.787 C124.845,96.252 124.233,105.516 124.233,105.516 C124.233,105.516 131.094,106.132 140.248,105.125 C149.401,104.121 151.02,96.699 148.788,92.121 C146.554,87.548 137.46,87.323 131.151,91.787 Z M226.504,96.153 C223,66.215 169.532,47.871 107.076,55.18 C44.621,62.491 -3.168,92.689 0.337,122.626 C3.842,152.563 57.313,170.906 119.766,163.595 C182.22,156.285 230.01,126.089 226.504,96.153 Z M169.435,101.629 C165.27,114.725 145.031,117.181 145.031,117.181 C136.919,118.298 122.036,118.147 122.036,118.147 C120.996,127.375 126.724,128.714 136.847,128.865 C146.966,129.011 159.541,123.207 159.541,123.207 L156.416,139.281 C156.416,139.281 143.989,142.629 134.76,142.48 C125.534,142.334 113.257,142.78 105.761,131.246 C98.266,139.653 88.627,143.075 75.754,143.151 C62.88,143.225 53.653,135.56 57.225,119.116 C60.796,102.67 82.302,100.884 82.302,100.884 C93.24,99.396 105.592,99.843 105.592,99.843 C107.156,89.797 97.631,89.201 87.883,89.276 C78.135,89.351 68.091,94.784 68.091,94.784 L70.843,78.934 C70.843,78.934 81.334,76.478 94.73,75.436 C108.124,74.394 118.094,79.529 121.295,86.821 C129.183,78.188 143.691,72.904 156.64,75.361 C169.586,77.817 173.605,88.533 169.435,101.629 Z" fill="#134451" fill-rule="nonzero"></path>
</svg>
