<svg xmlns="http://www.w3.org/2000/svg" width="227px" height="227px" viewBox="0 0 227 227">
  <path d="M181.224,171.715 L45.763,171.715 L33.545,193.894 C54.038,214.219 82.245,226.778 113.388,226.778 C144.589,226.778 172.844,214.174 193.346,193.782 L181.224,171.715 Z M81.083,106.932 L145.795,106.932 L113.388,47.68 L81.083,106.932 Z M57.974,149.318 L168.975,149.318 L158.045,129.329 L68.871,129.329 L57.974,149.318 Z" id="Shape" fill="#000000" fill-rule="nonzero"></path>
  <path d="M226.777,113.389 C226.777,136.071 220.113,157.194 208.642,174.916 L113.388,0 C176.011,0 226.777,50.767 226.777,113.389 Z M113.388,0 L18.026,174.751 C6.621,157.063 0,135.999 0,113.389 C0,50.767 50.765,0 113.388,0 Z" id="Arches" fill="#797979"></path>
</svg>
