
<svg width="227px" height="118px" viewBox="0 0 227 118" version="1.1" xmlns="http://www.w3.org/2000/svg">
  <path d="M185.621,87.285 L197.449,68.009 L208.302,87.285 L226.611,87.285 L206.197,56.907 L224.91,29.448 L207.734,29.448 L197.449,47.43 L187.728,29.448 L169.988,29.448 L188.863,56.907 L168.287,87.285 L185.621,87.285 Z M88.24,29.448 L72.929,29.448 L51.303,87.285 L66.774,87.285 L70.42,76.917 L90.59,76.917 L94.154,87.285 L109.871,87.285 L88.24,29.448 Z M73.902,65.737 L80.464,45.487 L80.628,45.487 L87.024,65.737 L73.902,65.737 Z M40.507,55.612 C45.042,53.343 48.12,49.133 48.12,43.948 C48.12,31.878 37.186,29.286 27.222,29.448 L0.166,29.448 L0.166,87.285 L27.95,87.285 C40.346,87.285 50.469,83.072 50.469,69.302 C50.469,62.741 46.663,57.395 40.507,55.612 Z M15.233,41.113 L26.898,41.113 C30.059,41.113 33.056,42.489 33.056,46.703 C33.056,50.832 29.491,52.211 26.898,52.211 L15.233,52.211 L15.233,41.113 Z M27.302,75.216 L15.233,75.216 L15.233,61.933 L27.302,61.933 C31.84,61.933 35.404,63.631 35.404,68.735 C35.404,73.515 32.082,75.216 27.302,75.216 Z M149.635,65.09 L129.545,29.448 L114.072,29.448 L114.072,87.285 L128.25,87.285 L128.25,51.238 L128.41,51.238 L148.5,87.285 L163.97,87.285 L163.97,29.448 L149.795,29.448 L149.795,65.09 L149.635,65.09 Z" id="Shape" fill="#225BA6" fill-rule="nonzero"></path>
  <path d="M41.024,22.607 L41.024,22.606 L28.451,22.606 C27.974,22.606 27.585,22.218 27.585,21.742 L27.585,0.927 C27.5847342,0.697241147 27.6758879,0.476816207 27.8383521,0.314352056 C28.0008162,0.151887904 28.2212411,0.0607342289 28.451,0.061 L41.024,0.061 C41.5022786,0.061 41.89,0.448721407 41.89,0.927 L41.89,21.743 C41.8883489,22.2202689 41.5012715,22.6064524 41.024,22.607 Z M28.451,95.024 L41.023,95.024 C41.5008883,95.0239997 41.8884482,95.411112 41.889,95.889 L41.889,116.705 C41.8878984,117.18266 41.5006605,117.56945 41.023,117.57 L28.451,117.57 C27.974,117.57 27.585,117.182 27.585,116.705 L27.585,95.889 C27.5855518,95.411112 27.9731117,95.0239997 28.451,95.024 Z M13.605,22.607 L13.605,22.606 L1.032,22.606 C0.553,22.606 0.166,22.218 0.166,21.742 L0.166,0.927 C0.165467343,0.697159641 0.256535308,0.476579534 0.419057421,0.314057421 C0.581579534,0.151535308 0.802159641,0.0604673435 1.032,0.061 L13.605,0.061 C13.8347589,0.0607342289 14.0551838,0.151887904 14.2176479,0.314352056 C14.3801121,0.476816207 14.4712658,0.697241147 14.471,0.927 L14.471,21.743 C14.4693489,22.2202689 14.0822715,22.6064524 13.605,22.607 Z M1.032,95.024 L13.604,95.024 C13.8335855,95.0237346 14.0538586,95.1147511 14.2162939,95.2769988 C14.3787292,95.4392466 14.4700002,95.6594144 14.47,95.889 L14.47,116.705 C14.4688984,117.18266 14.0816605,117.56945 13.604,117.57 L1.032,117.57 C0.553,117.57 0.166,117.182 0.166,116.705 L0.166,95.889 C0.165999847,95.6594144 0.257270772,95.4392466 0.419706085,95.2769988 C0.582141399,95.1147511 0.802414524,95.0237346 1.032,95.024 Z" id="Path" fill="#858688"></path>
</svg>
