<svg width="207px" height="227px" viewBox="0 0 207 227" version="1.1" xmlns="http://www.w3.org/2000/svg">
  <defs>
    <linearGradient x1="50%" y1="0%" x2="50%" y2="98.3378508%" id="linearGradient-1">
      <stop stop-color="#DEB34F" offset="0%"></stop>
      <stop stop-color="#C39248" offset="100%"></stop>
    </linearGradient>
  </defs>
  <path fill="url(#linearGradient-1)" d="M0.013,3.635 C0.013,3.635 27.089,10.608 27.089,50.815 L27.089,172.148 C27.089,219.63 0.013,222.358 0.013,222.358 L0.013,226.399 L44.263,224.277 L44.263,2.119 L0.013,0 L0.013,3.635 Z M169.083,54.099 C169.688,86.36 156.654,98.954 156.654,98.954 C156.654,98.954 188.632,88.649 188.023,51.976 C187.418,15.304 144.228,5.908 144.228,5.908 C144.228,5.908 168.475,21.837 169.083,54.099 Z M166.131,110.926 C166.131,110.926 185.267,127.961 186.19,164.223 C187.117,200.487 166.131,218.369 166.131,218.369 C166.131,218.369 206.513,207.003 206.058,163.814 C205.603,120.625 166.131,110.926 166.131,110.926 Z M153.322,118.805 C146.048,112.744 125.437,105.773 125.437,105.773 C125.437,105.773 139.077,98.954 145.29,89.104 C151.503,79.253 156.353,61.22 151.808,42.278 C147.262,23.335 130.592,4.392 111.195,1.665 C91.797,-1.064 83.564,2.119 60.023,2.423 L60.023,224.075 C60.023,224.075 95.737,226.701 114.983,226.55 C134.228,226.399 163.778,213.214 169.233,177.299 C174.688,141.385 160.594,124.867 153.322,118.805 Z M80.128,20.911 C83.613,17.578 101.647,11.667 118.771,23.488 C135.895,35.309 140.339,69.91 126.196,88.297 C112.053,106.684 76.795,101.835 76.795,101.835 C76.795,101.835 76.642,24.245 80.128,20.911 Z M150.643,178.311 C142.461,209.933 117.609,210.845 104.575,210.338 C91.543,209.831 79.013,210.033 77.6,173.361 C76.188,136.688 76.792,117.088 76.792,117.088 C76.792,117.088 115.586,115.572 128.822,121.332 C142.057,127.091 158.828,146.689 150.643,178.311 Z"></path>
</svg>
