<svg width="227px" height="227px" viewBox="0 0 227 227" version="1.1" xmlns="http://www.w3.org/2000/svg">
  <defs>
    <linearGradient x1="50%" y1="0%" x2="50%" y2="97.1998565%" id="linearGradient-1">
      <stop stop-color="#DEB34F" offset="0%"></stop>
      <stop stop-color="#C39248" offset="100%"></stop>
    </linearGradient>
  </defs>
  <path d="M113.45,0.122 C50.861,0.122 0.122,50.861 0.122,113.45 C0.122,176.039 50.861,226.777 113.45,226.777 C176.039,226.777 226.777,176.039 226.777,113.45 C226.777,50.861 176.039,0.122 113.45,0.122 Z" fill="#FFD662"></path>
  <path d="M113.45048,5.11999989 C53.6215195,5.11999989 5.11999989,53.6215195 5.11999989,113.45048 C5.11999989,173.27944 53.6215195,221.780004 113.45048,221.780004 C173.27944,221.780004 221.780004,173.27944 221.780004,113.45048 C221.780004,53.6215195 173.27944,5.11999989 113.45048,5.11999989 Z" fill="#000000"></path>
  <path d="M127.593,100.42 C134.887,90.937 132.595,73.091 123.764,66.994 C114.932,60.897 105.631,63.947 103.833,65.665 C102.035,67.385 102.114,107.401 102.114,107.401 C102.114,107.401 120.298,109.903 127.593,100.42 Z M128.946,117.459 C122.12,114.489 102.113,115.271 102.113,115.271 C102.113,115.271 101.802,125.379 102.529,144.294 C103.26,163.207 109.721,163.103 116.442,163.365 C123.166,163.626 135.983,163.156 140.203,146.846 C144.423,130.537 135.774,120.428 128.946,117.459 Z M159.482,81.688 C159.794,100.602 143.302,105.917 143.302,105.917 C143.302,105.917 150.024,99.421 149.711,82.783 C149.398,66.143 136.894,57.928 136.894,57.928 C136.894,57.928 159.17,62.774 159.482,81.688 Z M85.336,170.553 L62.513,171.648 L62.513,169.564 C62.513,169.564 76.478,168.156 76.478,143.668 L76.478,81.088 C76.478,60.351 62.513,56.754 62.513,56.754 L62.513,54.88 L85.336,55.973 L85.336,170.553 Z M121.809,171.725 C111.883,171.804 93.462,170.449 93.462,170.449 L93.462,56.131 C105.604,55.974 109.85,54.333 119.854,55.739 C129.859,57.144 138.457,66.916 140.801,76.686 C143.146,86.455 140.646,95.757 137.439,100.836 C134.236,105.917 127.201,109.435 127.201,109.435 C127.201,109.435 137.831,113.03 141.584,116.155 C145.335,119.282 152.604,127.801 149.79,146.325 C146.976,164.848 131.735,171.648 121.809,171.725 Z M148.189,167.506 C148.189,167.506 159.012,158.282 158.536,139.581 C158.058,120.878 148.189,112.091 148.189,112.091 C148.189,112.091 168.547,117.094 168.781,139.369 C169.016,161.644 148.189,167.506 148.189,167.506 Z" fill="url(#linearGradient-1)"></path>
</svg>
