<svg width="227px" height="227px" viewBox="0 0 227 227" version="1.1" xmlns="http://www.w3.org/2000/svg">
  <circle fill="#A8C300" cx="113.5" cy="113.5" r="113.5"></circle>
  <circle fill="#FFFFFF" cx="113" cy="113" r="75"></circle>
  <path d="M80.35,117.349 L74.513,117.349 L74.513,130.876 L80.288,130.876 C83.082,130.876 87.336,129.406 87.336,124.277 C87.336,119.149 84.883,117.349 80.35,117.349 Z M114.234,97.189 L109.481,97.189 L109.481,112.022 L113.712,112.022 C116.898,112.022 121.703,110.873 121.703,104.658 C121.702,98.442 117.628,97.189 114.234,97.189 Z M85.299,103.221 C85.299,98.755 83.236,97.189 79.423,97.189 L74.513,97.189 L74.513,108.967 L79.37,108.967 C81.72,108.967 85.299,107.687 85.299,103.221 Z" fill="#000000" fill-rule="nonzero"></path>
  <path d="M113.502,36.901 C71.523,36.901 37.493,70.931 37.493,112.91 C37.493,154.889 71.523,188.919 113.502,188.919 C155.481,188.919 189.511,154.889 189.511,112.91 C189.511,70.932 155.481,36.901 113.502,36.901 Z M96.319,127.456 C94.987,137.092 86.369,140.148 80.729,140.148 L65.295,140.148 L65.295,88.049 L80.915,88.049 C91.129,88.049 94.596,94.316 94.439,102.308 C94.243,108.615 89.503,112.023 87.545,112.258 C92.558,113.667 97.651,117.819 96.319,127.456 Z M122.447,140.147 L114.383,121.256 C114.16,121.261 110.608,121.266 109.481,121.266 L109.481,140.147 L100.08,140.147 L100.08,88.049 L116.323,88.049 C123.531,88.049 130.843,92.123 130.843,104.292 C130.843,111.936 128.019,116.673 123.447,119.14 L132.828,140.147 L122.447,140.147 Z M168.552,140.147 L158.21,140.147 L150.846,121.266 L144.109,140.147 L134.159,140.147 L145.519,113.353 L134.786,88.048 L145.206,88.048 L151.787,106.459 L157.741,88.048 L167.847,88.048 L157.192,114.097 L168.552,140.147 Z" fill="#000000" fill-rule="nonzero"></path>
  <path d="M113.4,0 C50.8,0 0,50.8 0,113.4 C0,176 50.8,226.8 113.4,226.8 C176,226.8 226.8,176 226.8,113.4 C226.8,50.8 176,0 113.4,0 Z M198.463,131.398 C198.463,131.398 191.453,138.839 183.286,152.986 C175.119,167.132 172.179,176.924 172.179,176.924 L182.284,182.758 C170.816,194.052 156.582,202.545 140.688,207.123 L140.688,195.106 C140.688,195.106 130.738,192.756 114.404,192.756 C98.069,192.756 88.12,195.106 88.12,195.106 L88.12,207.62 C71.81,203.26 57.178,194.801 45.391,183.412 L56.628,176.924 C56.628,176.924 53.689,167.132 45.521,152.986 C37.354,138.84 30.344,131.398 30.344,131.398 L18.74,138.097 C16.563174,129.87846 15.4633026,121.411938 15.468,112.91 C15.4624316,104.591645 16.5138517,96.3062941 18.597,88.253 L30.344,95.035 C30.344,95.035 37.354,87.594 45.521,73.447 C53.688,59.301 56.628,49.509 56.628,49.509 L44.996,42.793 C56.85,31.211 71.627,22.61 88.119,18.201 L88.119,31.328 C88.119,31.328 98.069,33.678 114.403,33.678 C130.738,33.678 140.687,31.328 140.687,31.328 L140.687,18.698 C156.763,23.328 171.142,31.96 182.677,43.448 L172.178,49.51 C172.178,49.51 175.117,59.302 183.285,73.448 C191.452,87.594 198.462,95.036 198.462,95.036 L208.633,89.164 C210.56453,96.932173 211.539424,104.907295 211.536,112.912 C211.54143,121.101524 210.522181,129.259552 208.502,137.196 L198.463,131.398 Z" fill="#000000" fill-rule="nonzero"></path>
</svg>
