<svg width="227px" height="227px" viewBox="0 0 227 227" version="1.1" xmlns="http://www.w3.org/2000/svg">
  <path d="M209.008,200.802 L172.492,164.283 C178.602,156.513 182.276,146.735 182.276,136.08 C182.276,110.829 161.805,90.359 136.555,90.359 L101.766,90.359 L101.766,38.913 L136.555,38.913 C177.555,38.913 212.598,64.322 226.865,100.239 L226.865,10.496 C226.865,4.699 222.165,0 216.367,0 L90.835,0 L90.835,136.08 C90.835,161.329 111.302,181.8 136.555,181.8 C147.209,181.8 156.986,178.126 164.758,172.016 L201.276,208.535 C192.451187,216.422858 182.261363,222.634554 171.207,226.865 L216.367,226.865 C222.165,226.865 226.865,222.163 226.865,216.369 L226.865,171.94 C222.650425,182.532983 216.606065,192.302392 209.008,200.802 Z" id="Shape" fill="#210094" fill-rule="nonzero"></path>
  <path d="M39.39,136.08 L39.39,0 L10.499,0 C4.7,0 0,4.698 0,10.496 L0,38.913 L28.458,38.913 L28.458,90.359 L0,90.359 L0,216.368 C0,222.162 4.701,226.864 10.499,226.864 L101.916,226.864 C65.363,212.908 39.39,177.535 39.39,136.08 Z" id="Path" fill="#388437"></path>
</svg>
