<svg width="227px" height="208px" viewBox="0 0 227 208" version="1.1" xmlns="http://www.w3.org/2000/svg">
  <defs>
    <linearGradient x1="0%" y1="0%" x2="84.8034917%" y2="84.8034917%" id="linearGradient-1">
      <stop stop-color="#EEEEEE" offset="0%"></stop>
      <stop stop-color="#EEEEEE" offset="16.1371971%"></stop>
      <stop stop-color="#DCBA2B" offset="40.2264031%"></stop>
      <stop stop-color="#EDE84F" offset="45.4201212%"></stop>
      <stop stop-color="#7A7663" offset="66.6294643%"></stop>
      <stop stop-color="#648B66" offset="72.3832111%"></stop>
      <stop stop-color="#125A78" offset="84.4367825%"></stop>
      <stop stop-color="#4B9AD4" offset="100%"></stop>
    </linearGradient>
  </defs>
  <path fill="url(#linearGradient-1)" d="M133.922,10.865 L133.922,9.835 C135.937,8.972 139.921,8.154 146.76,10.018 C154.597,12.156 160.653,20.15 163.429,24.445 C163.424,25.292 163.416,26.207 163.405,27.215 C163.269,42.608 158.442,80.664 150.072,109.201 C142.764,134.13 126.807,167.302 123.573,173.917 C122.045,173.578 120.438,173.313 118.737,173.15 C120.083,164.735 125.971,127.279 129.682,93.146 C133.615,56.935 133.922,21.012 133.922,10.865 Z M166.79,27.244 L166.791,27.111 C169.749,27.05 176.272,27.586 183.717,32.448 C190.929,37.155 194.645,46.109 196.2,50.918 L195.478,53.753 C193.715,60.682 180.7,96.377 166.7,123.285 C154.829,146.097 135.854,171.321 131.718,176.725 C130.161124,175.973247 128.553129,175.332321 126.906,174.807 C130.752,166.904 146.142,134.64 153.32,110.154 C161.773,81.325 166.652,42.83 166.79,27.244 Z M169.703,124.848 C157.998,147.34 139.5,172.099 134.724,178.368 C136.695556,179.566655 138.547102,180.952384 140.253,182.506 C145.334,177.514 166.525,156.438 180.629,138.671 C196.909,118.165 213.087,89.374 215.733,83.134 L217.111,79.881 C216.734,75.752 215.581,69.186 212.073,64.328 C207.966,58.643 201.665,55.788 198.729,54.705 C196.511,63.275 183.035,99.227 169.703,124.848 Z M56.783,29.907 C58.054,39.998 64.082,71.984 74.602,106.433 C84.037,137.327 98.067,168.163 101.219,174.952 C102.858839,174.418431 104.532153,173.993839 106.228,173.681 C104.986,166.325 98.557,127.629 94.575,91.241 C90.225,51.469 88.455,17.77 88.219,10.923 C88.212,10.687 88.208,10.479 88.2,10.249 C85.235,9.379 78.62,8.301 70.127,12.239 C62.312,15.863 58.23,22.669 56.383,26.759 C56.504,27.696 56.635,28.74 56.783,29.907 Z M91.602,10.807 C91.837,17.627 93.602,51.204 97.941,90.874 C101.928,127.333 108.381,166.12 109.579,173.202 C111.198777,173.031953 112.826321,172.946503 114.455,172.946 C114.755,172.946 115.041,172.962 115.338,172.966 C116.563,165.323 122.558,127.33 126.313,92.779 C130.232,56.738 130.538,20.968 130.538,10.864 L130.538,9.239 C127.352,6.403 119.967,0.849 110.93,0.849 C101.894,0.849 94.663,6.402 91.559,9.237 C91.572,9.75 91.584,10.259 91.602,10.807 Z M114.456,176.33 C96,176.33 87.578,187.333 85.087,191.417 C100.696,202.864 110.614,207.928 114.597,207.928 C118.59,207.928 129.891,201.798 143.782,191.91 C141.227,187.613 132.783,176.33 114.456,176.33 Z M218.762,84.653 C215.845,91.36 199.593,120.225 183.279,140.778 C169.088,158.659 147.816,179.818 142.648,184.9 C144.081578,186.463003 145.372081,188.151433 146.504,189.945 C157.585281,181.83821 168.152605,173.05131 178.145,163.635 C204.805,138.456 226.038,113.559 226.742,101.005 C227.277,91.462 221.549,86.491 218.762,84.653 Z M9.338,82.225 C15.424,97.649 27.027,115.923 43.827,136.538 C63.748,160.99 83.256,178.3 88.151,182.52 C89.2909353,181.479114 90.4978544,180.514046 91.764,179.631 C87.029,174.021 70.115,153.089 54.55,122.796 C37.114,88.859 30.489,65.379 27.66,55.353 L27.237,53.859 L27.219,53.796 C23.317,54.84 13.474,58.104 9.61,65.243 C7.634,68.893 7.028,72.693 6.994,75.926 C7.73151875,78.0417118 8.51302154,80.1418339 9.338,82.225 Z M85.758,184.926 C80.484,180.366 61.029,163.014 41.201,138.678 C24.785,118.531 13.26,100.542 6.885,85.16 C4.494,87.264 -0.477,92.87 0.089,102.801 C0.829,115.815 19.521,136.412 53.657,166.034 C64.638,175.563 74.208,183.288 82.358,189.392 C83.3641377,187.810656 84.5014786,186.316725 85.758,184.926 Z M30.494,52.93 L30.918,54.434 C33.72,64.362 40.278,87.613 57.561,121.249 C73.362,152.003 90.521,172.95 94.656,177.812 C95.7546256,177.198187 96.8848623,176.642749 98.042,176.148 C94.641,168.808 80.746,138.145 71.364,107.421 C60.78,72.763 54.706,40.516 53.424,30.331 L53.376,29.944 C50.388,29.782 43.963,30.088 37.753,34.668 C32.48,38.558 30.328,44.868 29.455,49.075 C29.72,50.135 30.056,51.397 30.494,52.93 Z"></path>
</svg>
